<?xml version="1.0" encoding="UTF-8" standalone="no"?>
<!DOCTYPE svg PUBLIC "-//W3C//DTD SVG 1.1//EN" "http://www.w3.org/Graphics/SVG/1.1/DTD/svg11.dtd">
<svg width="100%" height="100%" viewBox="0 0 988 680" version="1.1" xmlns="http://www.w3.org/2000/svg" xmlns:xlink="http://www.w3.org/1999/xlink" xml:space="preserve" xmlns:serif="http://www.serif.com/" style="fill-rule:evenodd;clip-rule:evenodd;stroke-linejoin:round;stroke-miterlimit:2;">
    <g transform="matrix(1,0,0,1,-4606.269974,-6811.980125)">
        <g transform="matrix(1,0,0,1,0,4139.443207)">
            <g transform="matrix(0.44892,0.893572,-0.563339,0.283015,4077.766658,-2239.10597)">
                <path d="M5536.936,2272.589C5536.931,2272.61 5536.925,2272.631 5536.919,2272.652C5528.858,2301.164 5510.995,2319.511 5491.296,2319.511L4761.997,2319.511L4889.24,1917.765L5067.623,1917.765L4957.099,1703.51L5047.006,1419.643C5054.609,1395.638 5069.357,1379.369 5086.191,1376.417C5103.025,1373.465 5119.656,1384.231 5130.381,1405.022L5532.012,2183.599C5544.487,2207.782 5546.848,2241.33 5538.041,2269.28C5537.688,2270.401 5537.32,2271.504 5536.936,2272.589ZM4738.544,2393.562L5226.483,2393.562L5377.935,2663.244C5391.038,2686.576 5394.283,2719.937 5386.223,2748.449C5378.162,2776.961 5360.299,2795.308 5340.6,2795.308C5340.6,2795.308 4882.238,2794.319 4692.969,2792.433C4675.68,2792.259 4659.674,2777.929 4650.646,2754.541C4641.617,2731.153 4640.846,2702.026 4648.608,2677.52L4738.544,2393.562Z" style="fill:rgb(61,64,91);"/>
            </g>
        </g>
    </g>
</svg>
