<?xml version="1.0" encoding="UTF-8" standalone="no"?>
<!DOCTYPE svg PUBLIC "-//W3C//DTD SVG 1.1//EN" "http://www.w3.org/Graphics/SVG/1.1/DTD/svg11.dtd">
<svg width="100%" height="100%" viewBox="0 0 1771 303" version="1.1" xmlns="http://www.w3.org/2000/svg" xmlns:xlink="http://www.w3.org/1999/xlink" xml:space="preserve" xmlns:serif="http://www.serif.com/" style="fill-rule:evenodd;clip-rule:evenodd;stroke-linejoin:round;stroke-miterlimit:2;">
    <g transform="matrix(1,0,0,1,-6323.92212,-4991.146772)">
        <g transform="matrix(1,0,0,1,2109.397962,2092.500036)">
            <g transform="matrix(0.200065,0.398228,-0.251057,0.126128,3978.992327,709.732862)">
                <path d="M5536.936,2272.589L5536.919,2272.652C5528.858,2301.164 5510.995,2319.511 5491.296,2319.511L4761.997,2319.511L4889.24,1917.765L5067.623,1917.765L4957.099,1703.51L5047.006,1419.643C5054.609,1395.638 5069.357,1379.369 5086.191,1376.417C5103.025,1373.465 5119.656,1384.231 5130.381,1405.022L5532.012,2183.599C5544.487,2207.782 5546.848,2241.33 5538.041,2269.28C5537.688,2270.401 5537.32,2271.504 5536.936,2272.589ZM4738.544,2393.562L5226.483,2393.562L5377.935,2663.244C5391.038,2686.576 5394.283,2719.937 5386.223,2748.449C5378.162,2776.961 5360.299,2795.308 5340.6,2795.308C5340.6,2795.308 4882.238,2794.319 4692.969,2792.433C4675.68,2792.259 4659.674,2777.929 4650.646,2754.541C4641.617,2731.153 4640.846,2702.026 4648.608,2677.52L4738.544,2393.562ZM5431.925,902.472C5439.666,911.423 5447.302,920.125 5454.833,928.579C5476.168,952.528 5496.294,977.678 5515.213,1004.029L5701.555,1264.988L5661.342,1391.954L5219.608,1248.45L5257.233,1129.656L5489.713,1214.358C5506.461,1220.637 5523.855,1227.965 5541.897,1236.34C5559.939,1244.715 5578.041,1253.281 5596.203,1262.039C5602.37,1265.011 5608.492,1267.968 5614.568,1270.912C5609.48,1264.848 5604.352,1258.755 5599.183,1252.631C5583.96,1234.594 5568.912,1216.384 5554.04,1198.001C5539.169,1179.614 5525.178,1161.539 5512.068,1143.776L5331.483,895.225L5368.69,777.751L5602.035,859.723C5618.901,865.626 5636.408,872.598 5654.556,880.637C5672.706,888.671 5690.914,896.903 5709.181,905.333L5726.692,913.405C5721.847,907.722 5716.966,902.012 5712.05,896.274C5696.763,878.436 5681.652,860.425 5666.718,842.24C5651.784,824.051 5637.687,806.312 5624.426,789.024L5442.771,543.851L5480.566,424.52L5816.668,901.539L5776.538,1028.24L5533.276,946.997C5510.595,939.182 5486.512,929.067 5461.028,916.651L5431.925,902.472ZM5943.459,524.51C5929.224,569.455 5910.575,603.498 5887.514,626.639C5864.45,649.778 5838.752,661.404 5810.42,661.517C5782.085,661.627 5752.949,649.755 5723.012,625.898C5692.741,601.775 5669.149,571.63 5652.236,535.462C5635.324,499.294 5625.836,459.629 5623.775,416.467C5621.71,373.304 5627.795,329.25 5642.031,284.305C5656.322,239.183 5674.997,205.059 5698.057,181.933C5721.116,158.801 5746.839,147.203 5775.227,147.14C5803.616,147.073 5832.947,159.101 5863.218,183.223C5893.154,207.08 5916.552,237.07 5933.41,273.195C5950.267,309.314 5959.729,348.95 5961.797,392.105C5963.862,435.253 5957.75,479.389 5943.459,524.51ZM5888.364,480.606C5896.325,455.469 5898.674,431.191 5895.411,407.769C5892.148,384.348 5884.589,362.797 5872.733,343.117C5860.879,323.432 5846.099,306.536 5828.395,292.427C5810.517,278.18 5793.053,269.383 5776.005,266.034C5758.954,262.68 5743.536,265.92 5729.75,275.755C5715.962,285.589 5705.087,303.073 5697.126,328.21C5689.189,353.268 5686.869,377.443 5690.166,400.735C5693.462,424.021 5701.018,445.491 5712.834,465.145C5724.652,484.795 5739.556,501.788 5757.546,516.123C5775.25,530.232 5792.617,538.956 5809.649,542.295C5826.681,545.631 5842.074,542.449 5855.827,532.749C5869.581,523.045 5880.427,505.664 5888.364,480.606ZM6030.767,225.557L5738.884,-7.042L5771.904,-111.297L5820.758,-72.366L5822.332,-77.335C5808.085,-99.283 5799.657,-124.23 5797.047,-152.177C5794.439,-180.128 5797.334,-207.362 5805.732,-233.878C5807.67,-239.995 5809.998,-246.63 5812.716,-253.783C5815.436,-260.941 5817.928,-266.88 5820.193,-271.601L5882.578,-221.887C5880.272,-218.22 5877.176,-211.686 5873.29,-202.287C5869.401,-192.89 5865.961,-183.47 5862.97,-174.028C5856.636,-154.029 5853.649,-133.935 5854.009,-113.746C5854.368,-93.556 5857.87,-75.182 5864.516,-58.622C5871.158,-42.064 5880.717,-28.815 5893.191,-18.874L6064.857,117.925L6030.767,225.557ZM6184.17,-237.721C6172.646,-201.334 6156.395,-173.404 6135.418,-153.929C6114.439,-134.46 6090.107,-125.384 6062.422,-126.701C6034.736,-128.018 6004.934,-141.394 5973.015,-166.83C5940.579,-192.678 5915.87,-222.985 5898.887,-257.75C5881.905,-292.515 5872.235,-328.897 5869.877,-366.898C5867.518,-404.904 5871.959,-441.655 5883.2,-477.148C5891.913,-504.657 5901.941,-524.861 5913.285,-537.761C5924.63,-550.665 5935.975,-559.058 5947.32,-562.94C5958.667,-566.827 5968.631,-568.649 5977.212,-568.407L5978.669,-573.008L5833.217,-688.917L5867.309,-796.556L6256.312,-486.563L6222.913,-381.111L6176.715,-417.926L6174.565,-411.138C6179.857,-400.07 6184.817,-386.088 6189.445,-369.191C6194.071,-352.301 6196.468,-332.854 6196.634,-310.852C6196.8,-288.856 6192.645,-264.479 6184.17,-237.721ZM6137.575,-311.449C6145.015,-334.937 6147.325,-358.039 6144.506,-380.756C6141.688,-403.472 6134.484,-424.769 6122.895,-444.647C6111.306,-464.525 6096.068,-481.989 6077.181,-497.04C6058.169,-512.191 6040.314,-521.152 6023.617,-523.923C6006.922,-526.698 5992.087,-523.02 5979.113,-512.888C5966.137,-502.759 5955.901,-485.862 5948.406,-462.196C5940.742,-438.001 5938.391,-414.494 5941.351,-391.675C5944.309,-368.864 5951.559,-347.711 5963.099,-328.218C5974.637,-308.726 5989.467,-291.759 6007.59,-277.317C6025.762,-262.836 6043.347,-254.025 6060.346,-250.884C6077.343,-247.75 6092.576,-251.1 6106.045,-260.934C6119.514,-270.768 6130.024,-287.606 6137.575,-311.449ZM6322.71,-927.785C6337.503,-900.435 6346.735,-872.379 6350.405,-843.619C6354.916,-808.246 6351.307,-772.04 6339.576,-735.003C6329.538,-703.309 6316.459,-678.948 6300.34,-661.917C6284.222,-644.891 6265.867,-636.339 6245.274,-636.261C6224.682,-636.187 6202.711,-645.454 6179.361,-664.061L5993.81,-811.926L6027.899,-919.558L6203.053,-779.98C6222.622,-764.385 6240.526,-760.256 6256.763,-767.592C6272.997,-774.931 6285.584,-792.715 6294.525,-820.944C6300.576,-840.05 6303.322,-859.091 6302.762,-878.067C6302.204,-897.048 6298.263,-914.795 6290.938,-931.307C6283.611,-947.821 6272.932,-961.669 6258.902,-972.849L6087.93,-1109.096L6122.104,-1216.993L6413.987,-984.394L6381.582,-882.081L6322.71,-927.785ZM6088.54,-1495.056L6477.543,-1185.063L6443.453,-1077.43L6054.451,-1387.423L6088.54,-1495.056ZM6554.084,-1402.855C6544.784,-1373.491 6533.075,-1349.729 6518.958,-1331.567C6504.838,-1313.408 6489.083,-1302.752 6471.691,-1299.598C6454.301,-1296.449 6436.002,-1302.528 6416.794,-1317.835C6400.338,-1330.949 6388.283,-1346.687 6380.628,-1365.051C6372.973,-1383.42 6368.582,-1403.565 6367.455,-1425.484C6366.329,-1447.402 6367.44,-1470.182 6370.79,-1493.824C6374.14,-1517.469 6378.623,-1541.101 6384.237,-1564.72C6390.907,-1593.231 6396.191,-1616.419 6400.088,-1634.285C6403.985,-1652.158 6405.631,-1666.298 6405.027,-1676.703C6404.42,-1687.111 6400.832,-1694.933 6394.261,-1700.169L6392.882,-1701.268C6383.266,-1708.931 6374.159,-1712.345 6365.56,-1711.509C6356.959,-1710.681 6348.986,-1705.697 6341.641,-1696.559C6334.295,-1687.421 6327.826,-1674.024 6322.234,-1656.367C6316.56,-1638.452 6313.377,-1621.534 6312.687,-1605.611C6311.994,-1589.691 6313.11,-1575.361 6316.033,-1562.621C6318.957,-1549.885 6323.044,-1539 6328.292,-1529.967L6283.771,-1440.436C6269.429,-1463.373 6259.661,-1488.845 6254.468,-1516.851C6249.277,-1544.862 6248.088,-1574.296 6250.904,-1605.154C6253.719,-1636.012 6260.004,-1666.841 6269.759,-1697.641C6276.638,-1719.361 6285.226,-1740.035 6295.523,-1759.663C6305.82,-1779.291 6317.703,-1795.36 6331.17,-1807.869C6344.636,-1820.38 6359.616,-1827.149 6376.112,-1828.174C6392.606,-1829.201 6410.561,-1821.978 6429.979,-1806.504L6625.116,-1651.001L6592.504,-1548.034L6552.258,-1580.106L6550.874,-1575.738C6557.032,-1562.392 6561.706,-1546.844 6564.895,-1529.095C6568.083,-1511.352 6568.982,-1491.886 6567.591,-1470.698C6566.201,-1449.51 6561.698,-1426.896 6554.084,-1402.855ZM6512.384,-1470.648C6519.429,-1492.89 6522.752,-1514.323 6522.353,-1534.949C6521.955,-1555.575 6518.571,-1573.995 6512.201,-1590.211C6505.833,-1606.431 6497.263,-1618.833 6486.491,-1627.417L6451.948,-1654.945C6452.649,-1649.955 6452.456,-1642.682 6451.366,-1633.123C6450.274,-1623.566 6448.678,-1613.093 6446.579,-1601.702C6444.481,-1590.311 6442.28,-1579.272 6439.978,-1568.583C6437.673,-1557.897 6435.708,-1548.831 6434.082,-1541.386C6430.293,-1524.166 6427.957,-1507.822 6427.073,-1492.351C6426.186,-1476.883 6427.397,-1463.198 6430.705,-1451.297C6434.01,-1439.397 6440.136,-1429.883 6449.084,-1422.753C6457.487,-1416.056 6465.61,-1413.835 6473.452,-1416.089C6481.296,-1418.347 6488.541,-1424.199 6495.188,-1433.646C6501.832,-1443.095 6507.564,-1455.429 6512.384,-1470.648ZM6654.571,-1743.998L6362.688,-1976.597L6395.708,-2080.851L6444.562,-2041.92L6446.136,-2046.89C6431.889,-2068.837 6423.46,-2093.785 6420.851,-2121.732C6418.242,-2149.683 6421.138,-2176.916 6429.536,-2203.433C6431.473,-2209.55 6433.801,-2216.185 6436.52,-2223.338C6439.24,-2230.495 6441.732,-2236.434 6443.997,-2241.156L6506.382,-2191.442C6504.076,-2187.774 6500.98,-2181.241 6497.094,-2171.842C6493.205,-2162.445 6489.765,-2153.025 6486.774,-2143.582C6480.44,-2123.584 6477.453,-2103.49 6477.812,-2083.3C6478.172,-2063.111 6481.674,-2044.736 6488.319,-2028.177C6494.962,-2011.619 6504.52,-1998.37 6516.995,-1988.429L6688.66,-1851.63L6654.571,-1743.998ZM6762.485,-2308.094C6756.413,-2316.352 6750.379,-2324.551 6744.384,-2332.691C6727.936,-2355.026 6712.021,-2378.594 6696.638,-2403.398L6565.626,-2617.339L6601.72,-2731.299L6868.111,-2269.961C6880.754,-2248.13 6890.337,-2225.75 6896.862,-2202.819C6903.389,-2179.887 6906.313,-2155.963 6905.632,-2131.049C6904.953,-2106.139 6900.184,-2079.699 6891.325,-2051.728C6886.467,-2036.389 6881.301,-2022.858 6875.827,-2011.136C6870.354,-1999.415 6865.532,-1990.743 6861.36,-1985.121L6816.434,-2052.616L6822.633,-2063.688C6830.414,-2077.877 6835.722,-2091.808 6838.557,-2105.481C6841.392,-2119.153 6841.263,-2132.574 6838.169,-2145.742C6835.078,-2158.912 6828.548,-2171.712 6818.579,-2184.141L6802.196,-2205.761L6453.823,-2264.34L6490.286,-2379.466L6675.824,-2337.682C6697.75,-2332.602 6719.047,-2325.793 6739.714,-2317.255C6747.223,-2314.153 6754.813,-2311.099 6762.485,-2308.094Z" style="fill:rgb(244,241,222);"/>
            </g>
        </g>
    </g>
</svg>
